<?xml version="1.0" standalone="no"?>
<!DOCTYPE svg PUBLIC "-//W3C//DTD SVG 20010904//EN"
 "http://www.w3.org/TR/2001/REC-SVG-20010904/DTD/svg10.dtd">
<svg version="1.0" xmlns="http://www.w3.org/2000/svg"
 width="603.000000pt" height="224.000000pt" viewBox="0 0 603.000000 224.000000"
 preserveAspectRatio="xMidYMid meet">
<metadata>
Created by potrace 1.16, written by Peter Selinger 2001-2019
</metadata>
<g transform="translate(0.000000,224.000000) scale(0.100000,-0.100000)"
fill="#000000" stroke="none">
<path d="M170 1971 c0 -21 508 -177 800 -247 80 -19 151 -37 159 -40 10 -3
-22 -41 -94 -115 l-109 -110 44 -44 c24 -25 49 -45 54 -45 6 0 74 63 151 139
l140 140 100 -20 c55 -11 161 -28 235 -39 l135 -20 100 -100 c55 -55 105 -100
111 -100 5 0 30 20 54 45 l44 45 -39 41 -40 42 49 -7 c27 -3 63 -6 81 -6 l32
0 10 -75 c27 -186 164 -345 338 -390 44 -11 113 -15 272 -15 l213 0 0 70 0 70
-264 0 c-281 0 -310 4 -360 49 -47 43 -66 95 -66 190 l0 84 78 -7 c42 -3 222
-9 400 -13 l322 -6 0 -219 0 -219 68 3 67 3 3 216 2 215 283 18 c155 9 296 20
312 23 l30 6 -35 -37 -34 -36 44 -45 c24 -25 49 -45 54 -45 6 0 52 41 102 91
l91 91 199 29 c110 16 223 34 253 40 l54 11 131 -131 c72 -72 136 -131 142
-131 5 0 30 20 54 45 l44 45 -97 98 c-53 53 -97 101 -97 105 0 4 7 7 15 7 28
0 368 81 550 131 225 62 515 158 515 170 0 14 -5 13 -160 -42 -80 -28 -230
-75 -335 -104 -179 -51 -567 -145 -597 -145 -8 0 -30 16 -49 36 -93 98 -199
138 -353 132 -148 -5 -202 -33 -355 -183 l-118 -115 -99 -9 c-54 -5 -171 -12
-259 -16 -88 -3 -188 -8 -222 -11 l-63 -6 0 47 c0 60 31 116 83 152 l40 28
281 5 281 5 0 65 0 65 -205 3 c-116 1 -227 -2 -256 -8 -88 -18 -164 -62 -232
-133 -60 -64 -122 -170 -122 -211 0 -19 -9 -19 -297 -11 -164 4 -345 10 -403
14 l-105 6 -3 173 -2 173 -68 -3 -67 -3 -3 -162 c-2 -121 -6 -163 -15 -163 -6
0 -50 5 -97 10 l-84 10 -101 99 c-160 158 -225 187 -401 179 -90 -4 -111 -9
-167 -36 -35 -18 -84 -49 -108 -70 l-44 -39 -180 43 c-233 55 -465 121 -650
184 -157 53 -165 55 -165 41z m1413 -215 c32 -14 180 -156 162 -156 -32 1
-349 55 -389 67 -16 4 -14 9 15 40 19 20 48 41 64 49 39 17 108 18 148 0z
m2890 0 c38 -16 138 -116 117 -116 -8 -1 -114 -16 -235 -34 -121 -19 -221 -33
-222 -32 -7 6 167 171 192 182 40 17 108 17 148 0z"/>
<path d="M620 885 l0 -125 -225 0 c-140 0 -225 -4 -225 -10 0 -6 86 -11 223
-12 l222 -3 5 -105 c7 -134 40 -210 130 -304 119 -124 191 -146 482 -146 l208
0 0 70 0 70 -239 0 c-297 0 -319 3 -371 47 -67 58 -74 80 -75 233 l0 135 255
3 255 2 -68 -68 c-37 -37 -67 -74 -67 -83 0 -16 70 -89 86 -89 5 0 63 54 129
120 l120 120 240 0 240 0 122 -122 123 -122 45 44 c25 24 45 49 45 54 0 6 -30
41 -67 78 l-67 68 794 0 794 0 -67 -68 c-37 -37 -67 -74 -67 -83 0 -16 70 -89
86 -89 5 0 63 54 129 120 l120 120 240 0 240 0 122 -122 123 -122 45 44 c25
24 45 49 45 54 0 6 -30 41 -67 78 l-67 68 122 0 122 0 0 -62 c0 -87 24 -189
57 -250 39 -71 137 -168 203 -200 85 -41 154 -49 370 -46 l195 3 3 67 3 66
-280 4 -279 3 -43 30 c-23 17 -53 50 -66 74 -21 40 -23 57 -23 178 l0 133 435
0 c283 0 435 3 435 10 0 7 -152 10 -435 10 l-435 0 0 125 0 126 -67 -3 -68 -3
-3 -122 -3 -123 -131 0 -131 0 -79 76 c-93 89 -168 128 -276 145 -152 23 -283
-24 -412 -147 l-77 -74 -813 0 -812 0 -79 75 c-94 88 -174 130 -277 146 -153
23 -282 -23 -410 -145 l-79 -76 -267 0 -266 0 0 125 0 125 -65 0 -65 0 0 -125z
m1164 0 c18 -9 56 -40 86 -70 l54 -55 -219 0 -219 0 49 51 c28 28 64 60 80 70
37 23 124 25 169 4z m2469 1 c18 -8 57 -39 87 -70 l54 -56 -219 0 -219 0 49
51 c28 28 64 60 80 70 36 23 121 25 168 5z"/>
<path d="M2398 630 c-21 -23 -38 -45 -38 -51 0 -6 69 -79 153 -163 124 -125
164 -159 217 -184 88 -43 189 -57 283 -42 122 21 173 54 349 228 l158 156 -24
30 c-13 17 -35 39 -50 50 l-27 20 -187 -186 c-193 -193 -227 -218 -299 -218
-69 1 -112 32 -298 219 -99 100 -184 181 -189 181 -5 0 -26 -18 -48 -40z"/>
</g>
</svg>
